<svg xmlns="http://www.w3.org/2000/svg"><symbol id="add" viewBox="0 0 13 13"><path d="M13 5H8V0H5v5H0v3h5v5h3V8h5"/></symbol><symbol id="arrow-down" viewBox="0 0 17.8 11.6"><path d="M17.8 2.7l-8.9 8.9L0 2.7 2.7 0l6.2 6.2L15.1 0"/></symbol><symbol id="arrow-left" viewBox="0 0 11.606 17.828"><path d="M8.912 17.828L0 8.914 8.912 0l2.694 2.693-6.22 6.22 6.22 6.222"/></symbol><symbol id="arrow-right" viewBox="0 0 11.606 17.827"><path d="M2.693 17.827l8.913-8.913L2.693 0 0 2.692l6.22 6.222L0 15.134"/></symbol><symbol id="arrow-up" viewBox="0 0 17.8 11.6"><path d="M0 8.9L8.9 0l8.9 8.9-2.7 2.7-6.2-6.2-6.2 6.2"/></symbol><symbol id="checkmark" viewBox="0 0 26.382 20.345"><path d="M8.82 20.345L0 11.522l2.78-2.78 6.04 6.04L23.602 0l2.78 2.78"/></symbol><symbol id="close" viewBox="0 0 14.484 14.486"><path d="M14.484 1.954L12.53 0 7.243 5.29 1.953 0 0 1.955l5.29 5.29L0 12.532l1.953 1.953 5.29-5.29 5.288 5.29 1.96-1.953L9.2 7.244"/></symbol><symbol id="document" viewBox="0 0 24 28"><path d="M24 9L14 0H0v28h24V9zm-6 0h-4V4.8L18 9zm2 15H4V4h6v9h10v11z"/></symbol><symbol id="documents-multiple" viewBox="0 0 26 32"><path d="M17.23 0H7v7H0v25h21v-7h5V9.23L17.23 0zM17 28H4V11h3v14h10v3zm5-7H11V4h6v6h5v11z"/></symbol><symbol id="download" viewBox="0 0 31.447 25.334"><path d="M24.3 7.404C23.55 3.194 20.003 0 15.724 0c-4.28 0-7.828 3.193-8.575 7.404C3.08 8.18 0 11.852 0 16.284c0 4.997 3.91 9.05 8.735 9.05 1.098 0 2.144-.218 3.108-.603-.62-.95-1.07-2.11-1.26-3.41-.584.24-1.2.4-1.85.4-2.89 0-5.24-2.43-5.24-5.43 0-2.61 1.803-4.85 4.287-5.32l2.367-.45.437-2.45c.457-2.57 2.62-4.44 5.14-4.44s4.682 1.87 5.14 4.44l.435 2.45 2.36.46c2.48.48 4.28 2.72 4.28 5.32 0 3-2.35 5.43-5.24 5.43-.65 0-1.27-.16-1.85-.39-.19 1.3-.64 2.46-1.26 3.41.96.39 2.01.61 3.11.61 4.82 0 8.73-4.05 8.73-9.05 0-4.43-3.09-8.1-7.15-8.88zM20.725 16h-3v-6h-4v6h-3l5.004 5"/></symbol><symbol id="edit" viewBox="0 0 25.988 26.177"><path d="M1.463 18.406L19.87 0l6.118 6.117L7.58 24.524zM0 26.176h6.3l-6.3-6.3"/></symbol><symbol id="executed" viewBox="0 0 41.847 41.846"><path d="M20.924 0C9.37 0 0 9.37 0 20.922c0 11.556 9.37 20.924 20.924 20.924s20.923-9.368 20.923-20.924C41.847 9.37 32.48 0 20.924 0zm0 36.615c-8.652 0-15.694-7.04-15.694-15.693S12.27 5.23 20.924 5.23c8.65 0 15.692 7.037 15.692 15.69s-7.04 15.695-15.692 15.695z"/><path d="M27.115 13.81l-8.846 8.844-3.54-3.54c-.98-.977-2.56-.977-3.54 0s-.98 2.564 0 3.54l5.31 5.308c.98.974 2.56.974 3.53 0l10.62-10.615c.98-.98.98-2.56 0-3.537-.98-.98-2.56-.98-3.54 0z"/></symbol><symbol id="info" viewBox="0 0 31 31"><path d="M15.5 0C6.94 0 0 6.94 0 15.5 0 24.06 6.94 31 15.5 31 24.06 31 31 24.06 31 15.5 31 6.94 24.06 0 15.5 0zM18 24h-5V13h5v11zm-2.43-13.144c-1.34 0-2.428-1.087-2.428-2.428 0-1.34 1.088-2.428 2.43-2.428S18 7.087 18 8.43c0 1.34-1.088 2.426-2.43 2.426z"/></symbol><symbol id="loading" viewBox="0 0 36 36"><path d="M16 0h4v8h-4zm0 28h4v8h-4zM0 16h8v4H0zm28 0h8v4h-8zM6.686 32.14l-2.828-2.827 5.657-5.657 2.828 2.828zM29.313 3.857l2.828 2.828-5.65 5.657-2.83-2.828zm0 28.283l-5.66-5.655 2.83-2.83 5.657 5.657zM6.683 3.857l5.657 5.657-2.826 2.828-5.656-5.656z"/></symbol><symbol id="lock-solid" viewBox="0 0 26 32"><path d="M23 10c0-5.52-4.478-10-10-10C7.477 0 3 4.48 3 10H0v22h26V10h-3zm-8 16h-4v-8h4v8zM6.755 10c0-3.447 2.796-6.244 6.245-6.244 3.447 0 6.244 2.797 6.244 6.244H6.754z" fill-rule="evenodd" clip-rule="evenodd"/></symbol><symbol id="logout" viewBox="0 0 30 30"><g fill-rule="evenodd" clip-rule="evenodd"><path d="M30 0H0v30h30v-9h-4v5H4V4h22v5h4"/><path d="M28.444 14.88l-6.437-6.437v4.407H10.01v4.062h11.997v4.406"/></g></symbol><symbol id="popup-window" viewBox="0 0 13.471 14.04"><g><path d="M5.083 4.787L6.83 3.04H0v11h11V6.113L8.704 8.408l-3.62-3.62zM10 13.04H1v-4h9v4z"/><path d="M7.07 0l2.3 2.305-2.44 2.44L8.726 6.54l2.44-2.44 2.304 2.303V0"/></g></symbol><symbol id="profile" viewBox="0 0 28.003 27.981"><g><path d="M14 14.274c-7.52 0-13.64 6.242-14 13.707h28.003c-.3-7.46-6.443-13.7-14.003-13.7z"/><circle cx="14.002" cy="6.989" r="6.989"/></g></symbol><symbol id="refresh" viewBox="0 0 32 31.818"><path d="M28.1 12.894H32V1.637l-3.814 3.77C25.253 1.957 20.886 0 15.996 0 7.163 0 0 7.113 0 15.948c0 8.837 7.162 15.87 15.997 15.87 7.74 0 14.193-4.925 15.676-12.925H28.11c-1.416 6-6.295 9.444-12.112 9.444-6.927 0-12.54-5.563-12.54-12.488S9.07 3.43 15.998 3.43c3.92 0 7.404 1.58 9.696 4.44l-5.08 5.023H28.1z"/></symbol><symbol id="search" viewBox="0 0 29.95 30.269"><path d="M29.95 27.27l-9.313-9.313c1.324-1.86 2.11-4.127 2.11-6.582C22.747 5.09 17.654 0 11.373 0S0 5.09 0 11.375c0 6.28 5.092 11.372 11.373 11.372 2.292 0 4.422-.684 6.207-1.85l9.37 9.37 3-2.998zM3 11.374C3 6.757 6.756 3 11.373 3s8.374 3.757 8.374 8.375c0 1.622-.472 3.134-1.274 4.418l-.04-.038-2.84 2.84c-1.24.73-2.68 1.152-4.22 1.152C6.756 19.747 3 15.99 3 11.375z"/></symbol><symbol id="settings" viewBox="0 0 30 30"><path d="M30 13.123v3.75h-3.92c-.28 1.664-.94 3.188-1.867 4.516l3.935 3.42-2.708 3.34-4.336-3.77c-1.262.82-2.684 1.42-4.23 1.68V30h-3.75v-3.92c-1.55-.262-2.973-.863-4.238-1.693L4.56 28.153 1.853 24.81l3.938-3.427c-.91-1.326-1.57-2.848-1.85-4.51H0v-3.75h3.918c.28-1.66.94-3.184 1.867-4.512L1.852 5.2 4.56 1.85l4.335 3.768c1.26-.82 2.684-1.416 4.23-1.68V0h3.75v3.938c1.546.264 2.968.86 4.23 1.68L25.44 1.85l2.708 3.344-3.935 3.418c.928 1.328 1.586 2.852 1.867 4.512H30zm-15-3.75c-3.107 0-5.627 2.52-5.627 5.627 0 3.107 2.52 5.623 5.627 5.623s5.623-2.516 5.623-5.623c0-3.105-2.516-5.627-5.623-5.627" fill-rule="evenodd" clip-rule="evenodd"/></symbol><symbol id="upload" viewBox="0 0 31.447 25.334"><g fill-rule="evenodd" clip-rule="evenodd"><path d="M24.3 7.404C23.55 3.194 20.003 0 15.724 0c-4.28 0-7.828 3.193-8.575 7.404C3.08 8.18 0 11.852 0 16.284c0 4.997 3.91 9.05 8.736 9.05 1.097 0 2.143-.22 3.107-.604-.62-.95-1.07-2.11-1.258-3.412-.586.236-1.203.396-1.85.396-2.89 0-5.242-2.438-5.242-5.43 0-2.61 1.803-4.85 4.287-5.322l2.367-.453.437-2.45c.457-2.58 2.62-4.44 5.14-4.44s4.682 1.86 5.14 4.44l.435 2.45 2.36.45c2.48.47 4.28 2.71 4.28 5.32 0 2.99-2.35 5.43-5.24 5.43-.65 0-1.27-.16-1.85-.4-.19 1.3-.64 2.46-1.26 3.41.96.38 2.01.6 3.11.6 4.82 0 8.73-4.06 8.73-9.05 0-4.43-3.09-8.11-7.15-8.88z"/><path d="M15.686 9.302L10.68 15.07h3.147v6.005h3.91V15.07h3.145"/></g></symbol><symbol id="warning-circle" viewBox="0 0 31.924 31.926"><path d="M15.962 0C7.146 0 0 7.146 0 15.963c0 8.815 7.146 15.963 15.962 15.963 8.814 0 15.962-7.147 15.962-15.963C31.924 7.146 24.776 0 15.962 0zm-2.346 6.012h4.692v11.896h-4.692V6.012zM15.96 26c-1.573 0-2.85-1.277-2.85-2.853 0-1.576 1.276-2.853 2.85-2.853 1.577 0 2.855 1.276 2.855 2.853 0 1.576-1.278 2.853-2.854 2.853z"/></symbol><symbol id="warning-triangle" viewBox="0 0 30 30"><path d="M15 0L0 30h30L15 0zm-1.946 10.813h3.892v9.578h-3.892v-9.57zM15 26.46c-1.307 0-2.366-1.06-2.366-2.367 0-1.308 1.06-2.366 2.365-2.366 1.3 0 2.36 1.06 2.36 2.366S16.3 26.46 15 26.46z"/></symbol></svg>